<svg viewBox="0 0 206 206" xmlns="http://www.w3.org/2000/svg">
  <rect width="206" height="206" rx="32" fill="#1e293b"/>
  <path fill="#fff" d="M74.3 76.9c3.7-3.7 3.7-9.8 0-13.6l-6.8-6.8-6.8 6.8c-3.7 3.7-3.7 9.8 0 13.6 3.8 3.8 9.9 3.8 13.6 0"/>
  <path fill="#fff" d="M158 12.5C150 4.4 139.3 0 127.9 0h-50c-11.3 0-22 4.4-30.1 12.5L12.5 47.8C4.4 55.9 0 66.5 0 77.9v50C0 139.3 4.4 150 12.5 158l35.3 35.3c8 8 18.7 12.5 30.1 12.5h50c11.4 0 22.1-4.4 30.1-12.5l35.3-35.3c8-8 12.5-18.7 12.5-30.1v-50c0-11.4-4.4-22.1-12.5-30.1zm30.8 115.4c0 6.8-2.7 13.3-7.5 18.1L146 181.3c-4.8 4.8-11.3 7.5-18.1 7.5h-50c-6.8 0-13.3-2.7-18.1-7.5L24.5 146c-4.8-4.8-7.5-11.3-7.5-18.1v-50c0-6.8 2.7-13.3 7.5-18.1l35.3-35.3c4.8-4.8 11.3-7.5 18.1-7.5h50c6.8 0 13.3 2.7 18.1 7.5l35.3 35.3c4.8 4.8 7.5 11.3 7.5 18.1z"/>
  <path fill="#fff" d="M156 94.7h-33.3l23.5-23.5c1.8-1.8 1.9-4.7.2-6.6-.8-.9-1.7-1.8-2.5-2.7-.9-.9-1.8-1.7-2.7-2.5-1.9-1.7-4.8-1.6-6.6.2l-23.5 23.5V49.8c0-2.5-2-4.6-4.5-4.8-2.4-.2-5-.2-7.4 0-2.5.2-4.5 2.3-4.5 4.8v44.9H49.8c-2.5 0-4.6 2-4.8 4.5-.1 1.2-.1 2.5-.1 3.7s0 2.5.1 3.7c.2 2.5 2.3 4.5 4.8 4.5h33.3l-23.5 23.5c-1.8 1.8-1.9 4.7-.2 6.6.8.9 1.7 1.8 2.5 2.7.9.9 1.8 1.7 2.7 2.5 1.9 1.7 4.8 1.6 6.6-.2l23.5-23.5V156c0 2.5 2 4.6 4.5 4.8s4.9.2 7.4 0 4.5-2.3 4.5-4.8v-33.3l23.5 23.5c1.8 1.8 4.7 1.9 6.6.2.9-.8 1.8-1.7 2.7-2.5.9-.9 1.7-1.8 2.5-2.7 1.7-1.9 1.6-4.8-.2-6.6l-23.5-23.5H156c2.5 0 4.6-2 4.8-4.5.1-1.2.1-2.4.1-3.7 0-1.2 0-2.5-.1-3.7-.2-2.5-2.3-4.5-4.8-4.5"/>
</svg>
